<?xml version="1.0" encoding="utf-8"?>
<!-- Generator: Adobe Illustrator 28.1.0, SVG Export Plug-In . SVG Version: 6.00 Build 0)  -->
<svg version="1.1" id="Layer_1" xmlns="http://www.w3.org/2000/svg" xmlns:xlink="http://www.w3.org/1999/xlink" x="0px" y="0px"
	 viewBox="0 0 100 100" style="enable-background:new 0 0 100 100;" xml:space="preserve">
<style type="text/css">
	.st0{fill:none;stroke:#000000;stroke-width:4;stroke-miterlimit:10;}
</style>
<path class="st0" d="M75,27.6L75,27.6c-4.7-2.2-9.6-3.7-14.7-4.6c-0.1,0-0.2,0-0.2,0.1c-0.6,1.1-1.3,2.5-1.8,3.7
	c-5.5-0.8-11-0.8-16.5,0c-0.5-1.3-1.2-2.5-1.9-3.7c0-0.1-0.1-0.1-0.2-0.1c-5.1,0.9-10.1,2.4-14.7,4.5l-0.1,0.1
	C15.6,41.3,13,54.7,14.3,67.9l0.1,0.2c5.4,4,11.5,7,18,8.9c0.1,0,0.2,0,0.3-0.1c1.4-1.9,2.6-3.8,3.7-5.9c0.1-0.1,0-0.2-0.1-0.3l0,0
	c-1.9-0.7-3.8-1.6-5.6-2.6c-0.1-0.1-0.1-0.2-0.1-0.3l0.1-0.1c0.4-0.3,0.8-0.6,1.1-0.9l0.2,0c11.8,5.3,24.5,5.3,36.2,0l0.2,0
	c0.4,0.3,0.7,0.6,1.1,0.9c0.1,0.1,0.1,0.2,0,0.3l-0.1,0.1c-1.8,1-3.7,1.9-5.6,2.6c-0.1,0-0.2,0.2-0.1,0.3l0,0c1.1,2.1,2.3,4,3.7,5.9
	c0.1,0.1,0.2,0.1,0.3,0.1c6.5-1.9,12.6-5,18-8.9l0.1-0.2C87.2,52.6,83.2,39.3,75,27.6z M38.1,59.8c-3.5,0-6.5-3.2-6.5-7.1
	c0-3.9,2.9-7.1,6.5-7.1c3.6,0,6.5,3.2,6.5,7.1C44.5,56.6,41.7,59.8,38.1,59.8z M62,59.8c-3.5,0-6.5-3.2-6.5-7.1
	c0-3.9,2.9-7.1,6.5-7.1c3.6,0,6.5,3.2,6.5,7.1C68.5,56.6,65.6,59.8,62,59.8z"/>
</svg>
